<svg version="1.1" id="Layer_1" xmlns="http://www.w3.org/2000/svg" xmlns:xlink="http://www.w3.org/1999/xlink" x="0px" y="0px"
	 width="100%" viewBox="0 0 1080 1080" enable-background="new 0 0 1080 1080" xml:space="preserve">
<path fill="#000000" opacity="1.000000" stroke="none" 
	d="
M600.000000,1081.000000 
	C400.023010,1081.000000 200.546036,1081.000000 1.034532,1081.000000 
	C1.034532,721.064575 1.034532,361.129120 1.034532,1.096845 
	C360.893860,1.096845 720.787720,1.096845 1080.840820,1.096845 
	C1080.840820,360.999939 1080.840820,720.999939 1080.840820,1081.000000 
	C920.795349,1081.000000 760.647644,1081.000000 600.000000,1081.000000 
M571.947083,554.449280 
	C571.634338,554.268799 571.321594,554.088318 571.008911,553.991150 
	C571.008911,553.991150 571.092163,553.990784 570.946838,553.449097 
	C570.633972,553.268677 570.321106,553.088318 570.021606,552.976868 
	C570.021606,552.976868 570.090332,552.962341 569.988953,552.323914 
	C569.388672,551.224365 568.788452,550.124878 568.905457,548.983093 
	C575.784180,543.984131 582.635315,538.946594 589.550537,533.998657 
	C594.869202,530.192993 593.472717,522.911438 587.665710,519.114929 
	C583.276489,514.480469 577.851807,513.002686 571.630005,513.683350 
	C567.840759,514.097900 563.762817,515.526062 562.091553,509.772949 
	C561.622925,508.159607 558.856567,506.652069 556.906921,506.252136 
	C555.825684,506.030334 553.694458,507.918701 552.989380,509.331543 
	C545.009094,525.321716 537.060791,541.332031 529.441040,557.495850 
	C526.256470,564.251343 528.156494,570.592285 533.185120,576.804810 
	C535.661011,578.124634 538.398743,580.850647 540.554199,580.449463 
	C544.191528,579.772278 547.518188,576.539551 546.846375,572.370789 
	C545.905518,566.532410 549.011230,562.279785 551.211731,557.650330 
	C551.883057,556.237976 553.752808,555.395203 555.317261,554.883118 
	C561.602966,562.119019 567.888672,569.354919 574.069824,577.325500 
	C578.163147,582.301270 583.345032,586.021606 589.793701,585.861877 
	C602.451843,585.548340 615.336853,579.635498 620.000122,565.285278 
	C620.894104,562.534363 622.005432,559.834961 623.242737,557.218811 
	C625.347168,552.769226 627.631287,548.404541 629.933594,544.789246 
	C629.630615,546.051819 628.972107,547.347290 629.085327,548.571350 
	C629.608582,554.229431 629.908813,559.967773 631.168274,565.476318 
	C631.948669,568.889343 634.302551,571.942566 636.225830,575.789856 
	C640.816040,577.836670 645.406189,579.883545 650.145386,581.996826 
	C653.032654,574.486450 655.483765,568.053528 658.003357,561.647522 
	C658.243469,561.037048 658.989319,560.645264 659.363892,560.064026 
	C660.286987,558.631531 661.327881,557.229065 661.969727,555.669739 
	C663.954834,550.847046 664.608093,544.864319 667.914429,541.330383 
	C673.961304,534.867126 681.585571,529.891174 688.408936,524.125488 
	C689.114929,523.528870 689.313232,521.602539 688.919678,520.627014 
	C688.477356,519.530396 687.095947,518.812561 685.821411,517.308716 
	C680.994568,511.268005 674.392578,511.763947 667.681152,512.170837 
	C661.142212,512.567322 657.471313,516.677979 654.221313,521.609192 
	C651.255798,526.108765 648.211487,530.556396 645.034058,534.315308 
	C643.364441,532.170227 641.694885,530.025146 639.910828,528.079163 
	C639.910828,528.079163 640.109802,528.193787 639.968689,527.669312 
	C639.697876,527.447510 639.427002,527.225769 638.880798,526.371948 
	C637.478516,524.954102 636.138733,523.467224 634.662903,522.130615 
	C628.631409,516.667969 625.437256,516.483948 620.192749,522.396423 
	C614.331360,529.004395 608.220032,535.627441 603.734619,543.148682 
	C599.744202,549.839966 594.087402,556.596497 596.533264,565.496826 
	C589.897766,568.383484 584.894714,564.860657 579.511536,561.128906 
	C578.345581,560.389099 577.179688,559.649292 575.997986,558.998108 
	C575.997986,558.998108 576.086609,559.013977 575.933044,558.468872 
	C575.618286,558.283081 575.303589,558.097351 574.990479,558.009949 
	C574.990479,558.009949 575.088806,558.008545 574.936646,557.464539 
	C574.622620,557.279541 574.308594,557.094543 573.996765,557.003662 
	C573.996765,557.003662 574.090942,557.001648 573.943848,556.457581 
	C573.630188,556.274414 573.316528,556.091248 573.004700,555.995789 
	C573.004700,555.995789 573.092407,555.993774 572.947510,555.451172 
	C572.634521,555.270081 572.321472,555.088928 572.008728,554.991272 
	C572.008728,554.991272 572.092224,554.990906 571.947083,554.449280 
M516.721375,568.980408 
	C518.224854,568.437744 519.873657,568.119446 521.180237,567.272949 
	C522.040283,566.715759 522.407166,565.397461 522.994873,564.419983 
	C521.985046,563.905579 520.975281,563.391174 519.943359,562.094971 
	C519.565552,561.120117 519.189026,559.301697 518.809692,559.301086 
	C515.041687,559.294983 511.190735,559.169067 507.522675,559.889221 
	C500.619873,561.244324 493.822510,563.136475 486.999115,564.017273 
	C487.320770,558.513000 489.470673,554.410767 495.371765,553.284729 
	C501.258362,552.161377 507.130737,550.919495 513.057739,550.065369 
	C518.265808,549.314941 518.898865,548.688416 517.045288,543.513306 
	C516.317322,541.480957 514.966980,539.671448 513.674805,537.203369 
	C513.119934,536.167969 512.565002,535.132629 512.811646,534.030090 
	C518.967346,531.597351 526.382324,531.975952 531.553223,525.673950 
	C529.720520,524.668701 528.281555,523.879456 526.955139,522.298157 
	C526.700073,521.583679 526.598816,520.363586 526.166443,520.232117 
	C521.186890,518.717407 516.157166,517.367798 511.027008,515.214600 
	C510.033417,513.769470 509.039856,512.324280 507.995605,510.098083 
	C507.812408,509.497772 507.821869,508.640167 507.416443,508.336578 
	C502.866028,504.929230 495.888580,505.582428 491.767792,509.694519 
	C490.715179,510.744995 489.683990,512.491882 488.504242,512.617676 
	C484.430359,513.052063 484.329712,516.089050 483.510498,518.913147 
	C482.594818,522.069580 481.607086,525.240784 480.256683,528.227417 
	C478.025238,533.162659 475.462585,537.947510 473.066528,542.809021 
	C467.732422,553.631775 469.027161,569.367126 477.145538,574.765869 
	C481.216095,579.330872 486.555664,580.621826 492.402161,581.056885 
	C501.327972,581.721130 509.193237,578.058594 517.243042,575.245544 
	C518.672241,574.746094 519.519775,572.582031 520.852539,570.915710 
	C518.472534,570.002869 517.202026,569.515564 516.721375,568.980408 
M728.802551,569.003845 
	C730.971313,567.356628 736.161011,568.833435 734.717224,563.218750 
	C733.400635,563.061279 732.146973,562.911316 730.962830,562.001770 
	C730.587402,561.046204 730.279419,559.301208 729.825623,559.262390 
	C726.726562,558.997498 723.469604,558.520569 720.502258,559.182251 
	C713.262085,560.796814 706.151428,562.992126 698.991516,564.147766 
	C699.307678,558.669250 701.306274,554.433960 707.270569,553.320251 
	C713.453857,552.165710 719.697205,551.294434 725.823547,549.900391 
	C727.394714,549.542969 729.849060,547.612183 729.787537,546.523315 
	C729.574463,542.750427 728.933960,538.732727 724.131714,536.578796 
	C723.751587,535.772400 723.371460,534.966003 723.804688,534.028564 
	C741.110718,529.577148 741.110718,529.577148 742.410645,524.838623 
	C741.166870,524.219788 739.912048,523.595459 738.754639,522.230591 
	C738.382080,521.587524 738.141785,520.534973 737.616333,520.365295 
	C732.813599,518.814209 727.961365,517.416687 723.025513,515.196533 
	C723.548584,512.096985 721.604309,511.268585 719.011353,510.170990 
	C716.403625,505.749481 708.641968,504.410797 704.694275,508.050842 
	C700.090088,512.296204 693.066589,514.951660 693.907166,523.167419 
	C693.962524,523.708679 693.328613,524.313477 693.034912,524.898499 
	C690.088379,530.767578 687.207642,536.670776 684.185608,542.500732 
	C680.873291,548.890869 680.133789,555.803833 681.256714,562.627502 
	C681.931885,566.730347 682.993103,571.543457 688.045288,573.950195 
	C691.874268,578.950317 697.141113,580.674377 703.221985,581.058838 
	C712.457275,581.642822 720.781738,578.339111 729.143372,575.289795 
	C730.608765,574.755310 731.492126,572.624939 732.885437,570.940002 
	C730.525085,570.023987 729.268188,569.536255 728.802551,569.003845 
M1034.928345,515.626221 
	C1034.841064,515.308472 1034.632568,515.155945 1033.813843,514.542053 
	C1029.631592,511.020081 1022.634827,511.243073 1019.362915,515.273865 
	C1014.678467,521.044800 1010.445801,527.195129 1005.581970,532.803406 
	C1002.292786,536.596008 998.898560,540.739807 993.023926,540.175110 
	C994.741577,535.583252 996.195679,530.869324 998.249756,526.433289 
	C1000.373779,521.846313 1001.246399,517.856079 995.841064,514.143188 
	C995.108826,513.477539 994.424927,512.747253 993.636658,512.156372 
	C987.220093,507.347107 983.092102,507.926910 979.038940,514.582214 
	C977.461731,517.171936 976.393188,520.140930 975.492310,523.060364 
	C972.556030,532.575134 974.924072,539.970215 982.411926,545.665039 
	C982.935547,546.051575 983.459106,546.438110 983.959717,547.344299 
	C984.221252,547.543457 984.482788,547.742615 985.071594,548.577576 
	C987.759094,550.363892 990.446594,552.150269 993.007812,554.701599 
	C991.123169,559.197388 989.002319,563.611633 987.414612,568.209900 
	C985.491150,573.780701 981.070251,579.461243 987.407166,585.813293 
	C991.160583,591.645508 996.793884,591.548950 1002.651917,590.725464 
	C1003.446899,587.381836 1004.632507,584.142334 1004.891174,580.830383 
	C1005.166138,577.311279 1006.743042,573.671265 1009.171814,572.735352 
	C1014.056396,570.853027 1011.752869,568.731079 1010.658142,566.763855 
	C1011.875366,565.968445 1013.518188,565.509949 1013.919189,564.538757 
	C1018.398743,553.689270 1025.516357,544.773071 1033.765747,536.617432 
	C1041.926270,528.549683 1042.168579,524.029419 1034.854248,515.799072 
	C1034.854248,515.799072 1034.769531,516.009216 1034.928345,515.626221 
M907.017944,509.149567 
	C905.870911,508.104034 904.634155,506.110626 903.595337,506.208862 
	C901.381836,506.418152 898.634460,507.146484 897.260376,508.689880 
	C894.931641,511.305573 893.358887,514.645020 891.709900,517.806152 
	C885.683899,529.358582 879.284241,540.750916 873.964050,552.624146 
	C870.542297,560.260559 868.420410,568.679565 877.186890,575.824036 
	C880.521362,578.758972 883.462524,582.486511 887.911987,581.952942 
	C892.218384,567.070435 896.127014,552.784851 905.643494,540.778076 
	C908.294800,537.432861 911.640198,534.025940 912.622986,530.131531 
	C913.744385,525.687927 913.111755,520.561523 912.184570,515.944092 
	C911.733459,513.697571 908.877502,511.933960 907.017944,509.149567 
M742.003784,574.821716 
	C746.365479,577.550964 750.988953,582.863525 755.032532,582.453796 
	C762.665039,581.680176 770.157471,578.035950 777.324646,574.748718 
	C781.265930,572.941162 785.769531,570.129089 787.638733,566.532593 
	C790.812988,560.424805 789.556885,550.569519 782.756531,546.288147 
	C778.186340,543.102600 773.616150,539.917053 769.390625,536.144348 
	C774.929260,532.876282 780.438110,529.519226 787.246155,530.064331 
	C788.365967,532.978699 794.053833,535.091125 796.081848,533.431580 
	C800.993347,529.412048 799.143677,518.595947 793.017090,515.215881 
	C790.683838,513.480225 788.473816,510.472656 785.995544,510.232391 
	C776.074097,509.270447 766.466553,510.463898 757.479004,515.718323 
	C749.481079,520.394165 746.719238,524.037354 748.133362,532.898438 
	C748.927551,537.874634 749.597839,543.079346 755.707825,545.635437 
	C759.426086,547.191040 762.276917,550.820190 766.412048,554.262695 
	C761.306702,556.651245 757.642090,558.409912 753.940063,560.085938 
	C749.784973,561.967102 746.024902,562.360229 742.594116,558.260376 
	C740.468445,555.720032 738.331360,556.684631 736.851074,559.567078 
	C734.529480,564.087891 737.148438,571.757996 742.003784,574.821716 
M945.322632,542.215027 
	C948.255554,537.744019 951.188477,533.273010 954.635559,529.131104 
	C955.403381,529.780884 956.171143,530.430664 957.007507,531.828552 
	C958.035217,534.599854 960.386658,535.979004 962.767822,534.780518 
	C964.339783,533.989319 965.659912,531.411865 965.899109,529.485962 
	C966.825867,522.022522 964.144653,515.814941 957.886719,510.459106 
	C956.837463,509.389465 955.976379,507.891083 954.702942,507.332214 
	C951.183289,505.787598 947.066711,502.925171 943.959473,503.696960 
	C938.149231,505.140228 933.344849,509.227997 931.082458,515.414246 
	C927.769165,524.473999 924.569214,533.585815 920.854919,542.480896 
	C919.928406,544.699646 917.259460,546.220581 915.304932,547.965393 
	C914.543274,548.645325 913.356506,548.886719 912.682373,549.620728 
	C909.085876,553.536560 909.412292,557.341125 913.647461,562.480530 
	C911.985352,566.581665 910.286072,570.668152 908.671692,574.787964 
	C907.052551,578.920044 909.095459,583.771851 913.033752,586.350464 
	C915.010925,587.569763 916.908386,589.563904 918.989014,589.778015 
	C920.856384,589.970276 923.972351,588.725281 924.722595,587.213562 
	C927.849548,580.913269 930.578186,574.372620 932.887329,567.723633 
	C934.528076,562.999268 937.239075,560.790527 942.215454,560.981628 
	C952.677979,561.383484 962.150574,557.322510 971.638123,553.779236 
	C973.301270,553.158203 973.960266,549.721741 974.865234,547.496826 
	C974.922180,547.356750 973.080017,546.444092 972.040283,545.061890 
	C971.941101,539.943298 968.476074,542.251038 966.123474,542.487244 
	C962.429565,542.858093 958.768066,543.805786 955.078491,543.891907 
	C951.732117,543.970032 948.366516,543.223755 945.322632,542.215027 
M835.035339,509.618958 
	C829.157959,504.036621 826.384949,504.532043 823.090149,511.644867 
	C822.128235,513.721497 820.889282,515.668518 819.809570,517.692139 
	C816.254883,524.353943 811.693726,530.697998 809.436707,537.775635 
	C806.815369,545.995728 802.726257,551.690918 794.470154,554.409607 
	C793.283020,554.800537 792.591980,556.698059 791.168579,558.553894 
	C793.789917,558.825989 795.390991,558.992126 796.666992,559.841675 
	C794.493103,565.536560 799.561462,561.908569 800.967163,563.969421 
	C800.847839,568.734558 800.850281,573.449707 806.196045,576.744751 
	C808.912415,579.957275 811.868225,582.646057 816.230164,581.827759 
	C818.577942,574.567261 821.142944,567.798523 822.863831,560.821533 
	C823.722961,557.338135 825.340088,558.940430 827.012207,559.923889 
	C826.676819,564.528320 826.231995,569.128052 826.036926,573.738403 
	C825.845703,578.259949 827.889893,581.531433 832.046204,584.000671 
	C838.590637,592.208923 840.802673,592.183960 844.902344,583.156311 
	C847.330933,577.808411 848.317017,571.756470 851.059265,566.611450 
	C855.207214,558.828552 857.287048,550.079834 862.851440,542.920654 
	C865.237305,539.850830 865.899536,535.496948 867.704407,531.907166 
	C870.408142,526.529480 869.403992,518.648926 864.783081,513.262085 
	C860.978638,508.756775 858.220337,508.728394 855.282349,513.681458 
	C851.612793,519.867615 848.220642,526.229614 844.964600,532.645569 
	C842.988708,536.539062 840.136108,537.772522 836.379883,536.148315 
	C837.272400,534.457703 838.225769,532.796021 839.047058,531.071472 
	C842.565186,523.683899 842.305359,513.793640 835.035339,509.618958 
M58.096542,574.385315 
	C62.073200,581.944824 66.044678,589.507080 70.027573,597.063293 
	C79.364502,614.776794 88.716919,632.482117 98.044724,650.200439 
	C112.351883,677.377075 126.649353,704.558899 140.939819,731.744385 
	C150.335098,749.617432 159.702118,767.505310 169.097244,785.378540 
	C183.384903,812.559265 197.677933,839.737122 211.985123,866.907593 
	C217.955780,878.246399 223.915039,889.591980 230.034195,900.850464 
	C230.751129,902.169495 232.658279,903.954895 233.654709,903.752930 
	C235.222672,903.435181 236.988205,901.883423 237.797745,900.383423 
	C244.034302,888.827515 250.033752,877.143921 256.157532,865.526733 
	C269.412109,840.381836 282.696808,815.252808 295.969543,790.117432 
	C305.318573,772.412537 314.672668,754.710327 324.016479,737.002686 
	C337.970459,710.558105 351.934479,684.118774 365.861267,657.659973 
	C374.963806,640.366516 384.022705,623.049927 393.074646,605.729919 
	C405.174133,582.578674 416.978668,559.267029 429.498749,536.345886 
	C433.199371,529.570923 431.683289,524.084656 428.644257,518.259033 
	C424.098602,509.545441 419.285919,500.971375 414.715363,492.270386 
	C409.322845,482.004578 404.154266,471.620850 398.731995,461.371063 
	C390.627197,446.050415 382.312714,430.840607 374.227234,415.509857 
	C368.588135,404.817719 363.251587,393.966309 357.652191,383.252808 
	C353.181488,374.698792 348.446777,366.282990 343.958221,357.738129 
	C338.490204,347.328613 333.250366,336.798706 327.741150,326.411469 
	C321.533112,314.706665 315.005127,303.170746 308.852936,291.437347 
	C301.423676,277.268402 294.337921,262.919525 286.928986,248.739716 
	C278.748383,233.083084 270.376373,217.526428 262.076080,201.932419 
	C254.013992,186.785950 245.972855,171.628113 237.841675,156.518799 
	C235.814987,152.752838 231.230164,152.885086 229.087708,156.637314 
	C227.385941,159.617752 225.665741,162.590683 224.068695,165.627411 
	C214.225998,184.343094 204.437332,203.087189 194.589813,221.800339 
	C181.152161,247.335724 167.668488,272.846863 154.222488,298.377869 
	C144.291718,317.234222 134.394363,336.108154 124.473595,354.969788 
	C114.475349,373.978729 104.466629,392.982117 94.462402,411.987885 
	C84.456726,430.996368 74.407951,449.982361 64.458229,469.020081 
	C55.867741,485.457092 47.317471,501.916046 38.900162,518.442078 
	C35.820431,524.488647 35.662323,531.033203 38.636635,537.016785 
	C44.778133,549.372009 51.455925,561.460693 58.096542,574.385315 
z"/>
<path fill="#3652B5" opacity="1.000000" stroke="none" 
	d="
M58.004829,574.022156 
	C51.455925,561.460693 44.778133,549.372009 38.636635,537.016785 
	C35.662323,531.033203 35.820431,524.488647 38.900162,518.442078 
	C47.317471,501.916046 55.867741,485.457092 64.458229,469.020081 
	C74.407951,449.982361 84.456726,430.996368 94.462402,411.987885 
	C104.466629,392.982117 114.475349,373.978729 124.473595,354.969788 
	C134.394363,336.108154 144.291718,317.234222 154.222488,298.377869 
	C167.668488,272.846863 181.152161,247.335724 194.589813,221.800339 
	C204.437332,203.087189 214.225998,184.343094 224.068695,165.627411 
	C225.665741,162.590683 227.385941,159.617752 229.087708,156.637314 
	C231.230164,152.885086 235.814987,152.752838 237.841675,156.518799 
	C245.972855,171.628113 254.013992,186.785950 262.076080,201.932419 
	C270.376373,217.526428 278.748383,233.083084 286.928986,248.739716 
	C294.337921,262.919525 301.423676,277.268402 308.852936,291.437347 
	C315.005127,303.170746 321.533112,314.706665 327.741150,326.411469 
	C333.250366,336.798706 338.490204,347.328613 343.958221,357.738129 
	C348.446777,366.282990 353.181488,374.698792 357.652191,383.252808 
	C363.251587,393.966309 368.588135,404.817719 374.227234,415.509857 
	C382.312714,430.840607 390.627197,446.050415 398.731995,461.371063 
	C404.154266,471.620850 409.322845,482.004578 414.715363,492.270386 
	C419.285919,500.971375 424.098602,509.545441 428.644257,518.259033 
	C431.683289,524.084656 433.199371,529.570923 429.498749,536.345886 
	C416.978668,559.267029 405.174133,582.578674 393.074646,605.729919 
	C384.022705,623.049927 374.963806,640.366516 365.861267,657.659973 
	C351.934479,684.118774 337.970459,710.558105 324.016479,737.002686 
	C314.672668,754.710327 305.318573,772.412537 295.969543,790.117432 
	C282.696808,815.252808 269.412109,840.381836 256.157532,865.526733 
	C250.033752,877.143921 244.034302,888.827515 237.797745,900.383423 
	C236.988205,901.883423 235.222672,903.435181 233.654709,903.752930 
	C232.658279,903.954895 230.751129,902.169495 230.034195,900.850464 
	C223.915039,889.591980 217.955780,878.246399 211.985123,866.907593 
	C197.677933,839.737122 183.384903,812.559265 169.097244,785.378540 
	C159.702118,767.505310 150.335098,749.617432 140.939819,731.744385 
	C126.649353,704.558899 112.351883,677.377075 98.044724,650.200439 
	C88.716919,632.482117 79.364502,614.776794 70.027573,597.063293 
	C66.044678,589.507080 62.073200,581.944824 58.004829,574.022156 
M310.098633,317.340027 
	C284.736633,268.937714 259.374634,220.535431 233.737289,171.607651 
	C232.841980,173.002304 232.280502,173.752991 231.846619,174.571320 
	C224.613907,188.212891 217.374939,201.851242 210.182205,215.513916 
	C200.305115,234.275482 190.476044,253.062332 180.607346,271.828369 
	C170.138245,291.736084 159.637482,311.627136 149.168045,331.534637 
	C139.299179,350.300171 129.435211,369.068237 119.601585,387.852203 
	C107.487526,410.992218 95.452049,434.173462 83.299294,457.293091 
	C71.456688,479.822723 59.533649,502.310211 47.573360,524.777588 
	C46.218651,527.322449 46.164268,529.086426 47.770660,531.884460 
	C53.955151,542.656799 59.562901,553.760986 65.352844,564.758789 
	C72.882729,579.061462 80.407257,593.367126 87.886314,607.696411 
	C95.758148,622.778198 103.528488,637.913025 111.428986,652.979736 
	C117.115921,663.824890 122.955956,674.589661 128.705078,685.402405 
	C134.620438,696.527710 140.589111,707.625793 146.387863,718.811768 
	C153.759354,733.031494 160.920822,747.360229 168.293259,761.579468 
	C173.106689,770.863098 178.155411,780.024536 183.060120,789.261292 
	C188.419693,799.354553 193.729904,809.474060 199.070312,819.577515 
	C207.017715,834.613159 214.979050,849.641418 222.921478,864.679626 
	C226.364334,871.198364 229.774841,877.734192 233.467316,884.771606 
	C242.377625,868.115906 250.952042,852.251221 259.375031,836.306458 
	C273.085571,810.352295 286.697418,784.346008 300.350342,758.361450 
	C310.345490,739.338440 320.335785,720.312927 330.335297,701.292236 
	C340.637085,681.696472 350.944366,662.103577 361.254822,642.512329 
	C371.263702,623.494019 381.334839,604.508240 391.276642,585.454956 
	C400.686401,567.421265 409.910950,549.290833 419.361023,531.278503 
	C420.652008,528.817810 420.661835,527.020569 419.336700,524.556152 
	C410.393524,507.924133 401.596283,491.213074 392.828552,474.487335 
	C380.324188,450.633392 367.944946,426.713684 355.403595,402.879272 
	C340.495544,374.547058 325.472290,346.275452 310.098633,317.340027 
z"/>
<path fill="#3853B5" opacity="1.000000" stroke="none" 
	d="
M635.950134,575.157288 
	C634.302551,571.942566 631.948669,568.889343 631.168274,565.476318 
	C629.908813,559.967773 629.608582,554.229431 629.085327,548.571350 
	C628.972107,547.347290 629.630615,546.051819 629.994019,544.008789 
	C630.405884,540.917908 630.757263,538.607544 631.108582,536.297119 
	C630.514954,535.957947 629.921326,535.618713 629.327698,535.279480 
	C627.019897,537.859375 624.081787,540.112610 622.539124,543.089050 
	C619.571228,548.815735 616.850403,554.789917 615.011475,560.955017 
	C612.049072,570.886475 605.009216,575.768616 595.924316,579.219604 
	C589.704773,581.582153 584.028259,581.902527 578.261597,578.410095 
	C576.996094,577.643677 575.541748,577.189087 574.174377,576.590820 
	C567.888672,569.354919 561.602966,562.119019 555.191772,554.213318 
	C553.510986,551.818054 551.955566,550.092651 549.305481,547.152832 
	C546.438660,554.051514 543.017456,559.316711 542.207520,564.956909 
	C541.102783,572.650024 540.232056,574.908936 532.835693,576.178589 
	C528.156494,570.592285 526.256470,564.251343 529.441040,557.495850 
	C537.060791,541.332031 545.009094,525.321716 552.989380,509.331543 
	C553.694458,507.918701 555.825684,506.030334 556.906921,506.252136 
	C558.856567,506.652069 561.622925,508.159607 562.091553,509.772949 
	C563.762817,515.526062 567.840759,514.097900 571.630005,513.683350 
	C577.851807,513.002686 583.276489,514.480469 587.733032,519.850464 
	C588.743286,524.804626 587.233826,528.045837 583.788147,530.463684 
	C580.355835,532.872192 576.855469,535.184326 573.440735,537.617065 
	C569.837158,540.184326 566.299500,542.844055 561.709778,546.214905 
	C562.729919,546.943298 564.311279,548.072327 566.003906,549.509399 
	C567.440247,550.865784 568.765259,551.914062 570.090332,552.962341 
	C570.090332,552.962341 570.021606,552.976868 570.134277,553.178101 
	C570.528748,553.583191 570.810425,553.786987 571.092163,553.990784 
	C571.092163,553.990784 571.008911,553.991150 571.127808,554.185486 
	C571.528564,554.583496 571.810425,554.787231 572.092224,554.990906 
	C572.092224,554.990906 572.008728,554.991272 572.128357,555.185303 
	C572.529480,555.584167 572.810913,555.789001 573.092407,555.993774 
	C573.092407,555.993774 573.004700,555.995789 573.132568,556.181885 
	C573.537292,556.579224 573.814087,556.790466 574.090942,557.001648 
	C574.090942,557.001648 573.996765,557.003662 574.134888,557.179688 
	C574.544922,557.573303 574.816833,557.790955 575.088806,558.008545 
	C575.088806,558.008545 574.990479,558.009949 575.135559,558.179138 
	C575.549316,558.570190 575.817932,558.792114 576.086609,559.013977 
	C576.086609,559.013977 575.997986,558.998108 576.088440,559.231995 
	C577.394592,560.181091 578.610229,560.896240 579.825928,561.611450 
	C584.894714,564.860657 589.897766,568.383484 596.533264,565.496826 
	C594.087402,556.596497 599.744202,549.839966 603.734619,543.148682 
	C608.220032,535.627441 614.331360,529.004395 620.192749,522.396423 
	C625.437256,516.483948 628.631409,516.667969 634.662903,522.130615 
	C636.138733,523.467224 637.478516,524.954102 639.178711,526.891235 
	C639.687744,527.671570 639.898804,527.932678 640.109802,528.193787 
	C640.109802,528.193787 639.910828,528.079163 639.848511,528.388916 
	C640.725891,532.638062 641.665466,536.577454 642.605042,540.516846 
	C643.092102,540.494995 643.579224,540.473145 644.066345,540.451294 
	C644.444824,538.643127 644.823364,536.835022 645.201904,535.026855 
	C648.211487,530.556396 651.255798,526.108765 654.221313,521.609192 
	C657.471313,516.677979 661.142212,512.567322 667.681152,512.170837 
	C674.392578,511.763947 680.994568,511.268005 685.655151,517.767700 
	C684.256042,519.058655 683.031189,519.902710 681.789124,520.720703 
	C673.424316,526.229858 665.466675,532.314514 660.914795,541.471741 
	C656.533691,550.285400 652.905762,559.473511 648.953613,568.500122 
	C647.971130,570.744141 647.014587,572.999634 646.334351,574.580139 
	C642.381714,574.799866 639.165894,574.978577 635.950134,575.157288 
z"/>
<path fill="#3953B5" opacity="1.000000" stroke="none" 
	d="
M796.992065,559.158325 
	C795.390991,558.992126 793.789917,558.825989 791.168579,558.553894 
	C792.591980,556.698059 793.283020,554.800537 794.470154,554.409607 
	C802.726257,551.690918 806.815369,545.995728 809.436707,537.775635 
	C811.693726,530.697998 816.254883,524.353943 819.809570,517.692139 
	C820.889282,515.668518 822.128235,513.721497 823.090149,511.644867 
	C826.384949,504.532043 829.157959,504.036621 835.236938,510.320129 
	C838.997498,522.747864 831.235107,530.961731 825.868042,540.481812 
	C829.671997,539.094849 832.869873,537.928894 836.067749,536.762939 
	C840.136108,537.772522 842.988708,536.539062 844.964600,532.645569 
	C848.220642,526.229614 851.612793,519.867615 855.282349,513.681458 
	C858.220337,508.728394 860.978638,508.756775 864.771606,513.914185 
	C865.708984,526.336426 861.166382,535.935669 853.095520,544.154785 
	C852.774292,544.481995 852.540955,545.004211 852.481323,545.463440 
	C851.205505,555.285217 845.407043,562.778992 840.368042,570.409424 
	C840.945068,572.416321 841.176453,574.387878 840.869446,576.271729 
	C840.637817,577.693176 839.555908,578.954407 839.134460,580.370850 
	C837.970825,584.282043 835.728699,585.359192 832.115845,583.338867 
	C827.889893,581.531433 825.845703,578.259949 826.036926,573.738403 
	C826.231995,569.128052 826.676819,564.528320 827.377930,559.496460 
	C831.046570,558.598572 833.080750,556.914001 833.452271,552.904297 
	C831.048767,553.087097 828.889526,553.628174 826.847656,553.339294 
	C819.289001,552.270081 816.747925,556.624268 815.393921,562.985840 
	C814.376221,567.767517 812.725647,572.414429 811.342712,577.169739 
	C809.101685,576.717468 807.519043,576.398071 805.936401,576.078674 
	C800.850281,573.449707 800.847839,568.734558 801.223755,563.415649 
	C802.141785,561.571655 802.803223,560.281433 803.848328,558.242981 
	C800.813477,558.648132 798.902771,558.903198 796.992065,559.158325 
z"/>
<path fill="#3A53B5" opacity="1.000000" stroke="none" 
	d="
M511.140747,515.974304 
	C516.157166,517.367798 521.186890,518.717407 526.166443,520.232117 
	C526.598816,520.363586 526.700073,521.583679 526.562012,522.785156 
	C517.114624,525.812561 508.089722,528.465637 498.990967,530.834961 
	C495.588104,531.721069 493.544434,533.405457 493.006042,536.585205 
	C499.459198,535.740356 505.734650,534.918823 512.010132,534.097229 
	C512.565002,535.132629 513.119934,536.167969 513.518616,537.721436 
	C514.607178,543.705688 511.707550,545.218323 506.874634,545.647705 
	C502.611176,546.026428 498.393250,547.069946 494.195099,547.999939 
	C485.257996,549.979736 483.626801,551.750671 482.147858,560.617920 
	C481.420654,564.977966 482.207184,565.659363 486.981323,564.805420 
	C493.822510,563.136475 500.619873,561.244324 507.522675,559.889221 
	C511.190735,559.169067 515.041687,559.294983 518.809692,559.301086 
	C519.189026,559.301697 519.565552,561.120117 519.640503,562.641357 
	C516.819275,563.839172 514.300964,564.490662 511.002411,565.343933 
	C513.254700,567.019836 514.628845,568.042297 515.609985,569.171021 
	C503.353943,574.567078 491.384186,578.936279 478.243927,573.736816 
	C477.893158,573.597961 477.333435,573.987183 476.871124,574.130127 
	C469.027161,569.367126 467.732422,553.631775 473.066528,542.809021 
	C475.462585,537.947510 478.025238,533.162659 480.256683,528.227417 
	C481.607086,525.240784 482.594818,522.069580 483.510498,518.913147 
	C484.329712,516.089050 484.430359,513.052063 488.504242,512.617676 
	C489.683990,512.491882 490.715179,510.744995 491.767792,509.694519 
	C495.888580,505.582428 502.866028,504.929230 507.416443,508.336578 
	C507.821869,508.640167 507.812408,509.497772 507.762146,510.750793 
	C506.951752,512.984863 506.374786,514.566284 505.288177,517.544556 
	C508.106537,516.788391 509.623627,516.381348 511.140747,515.974304 
z"/>
<path fill="#3852B5" opacity="1.000000" stroke="none" 
	d="
M982.342102,545.168518 
	C974.924072,539.970215 972.556030,532.575134 975.492310,523.060364 
	C976.393188,520.140930 977.461731,517.171936 979.038940,514.582214 
	C983.092102,507.926910 987.220093,507.347107 993.636658,512.156372 
	C994.424927,512.747253 995.108826,513.477539 995.758911,514.776978 
	C993.478394,521.130981 990.946594,526.754333 989.242432,532.618103 
	C988.541565,535.029602 989.523071,537.978271 990.031616,540.626465 
	C990.089294,540.926758 992.047180,540.862183 993.123962,540.966797 
	C998.898560,540.739807 1002.292786,536.596008 1005.581970,532.803406 
	C1010.445801,527.195129 1014.678467,521.044800 1019.362915,515.273865 
	C1022.634827,511.243073 1029.631592,511.020081 1034.447388,514.681519 
	C1034.977173,515.217041 1034.873291,515.613159 1034.769531,516.009216 
	C1034.769531,516.009216 1034.854248,515.799072 1034.832275,516.228577 
	C1036.788574,522.190430 1034.139038,526.078735 1030.557495,529.978516 
	C1026.209961,534.712585 1022.179443,539.757141 1018.256531,544.855591 
	C1014.990784,549.099915 1012.078735,553.616394 1008.939453,557.886475 
	C1008.825500,557.858398 1008.782166,557.956177 1008.738892,558.053955 
	C1008.853088,558.002747 1008.967346,557.951599 1008.908020,558.247437 
	C1007.703552,560.926147 1006.672607,563.257874 1005.641724,565.589539 
	C1003.339966,569.526978 999.602051,572.086426 999.766907,578.096924 
	C999.989014,586.191650 997.881775,587.175720 989.541260,585.496094 
	C988.739075,585.334595 987.906860,585.321777 987.088623,585.239929 
	C981.070251,579.461243 985.491150,573.780701 987.414612,568.209900 
	C989.002319,563.611633 991.123169,559.197388 993.426636,554.272461 
	C994.732422,552.850830 995.619507,551.858215 997.362183,549.908142 
	C992.341980,549.125793 988.543152,548.533813 984.744324,547.941772 
	C984.482788,547.742615 984.221252,547.543457 983.662720,547.567444 
	C981.103394,547.666626 980.517273,546.888184 982.342102,545.168518 
z"/>
<path fill="#3853B5" opacity="1.000000" stroke="none" 
	d="
M956.938904,531.080505 
	C956.171143,530.430664 955.403381,529.780884 954.371704,528.644653 
	C953.711853,526.133545 953.315796,524.108887 952.737122,521.151062 
	C944.812683,527.275452 942.534546,535.273743 938.289307,542.024902 
	C938.564453,542.451111 938.839539,542.877258 939.114624,543.303406 
	C941.079529,543.149292 943.044495,542.995117 945.009399,542.840942 
	C948.366516,543.223755 951.732117,543.970032 955.078491,543.891907 
	C958.768066,543.805786 962.429565,542.858093 966.123474,542.487244 
	C968.476074,542.251038 971.941101,539.943298 971.722168,545.557007 
	C968.587341,547.618713 965.941101,549.835266 962.921204,550.628052 
	C954.444275,552.853333 945.760620,554.288025 937.272522,556.476562 
	C934.446350,557.205200 930.933533,558.625610 929.533020,560.857971 
	C926.218018,566.142029 922.916199,571.872437 921.623413,577.857422 
	C920.450378,583.287964 917.924072,585.146301 913.173767,585.666626 
	C909.095459,583.771851 907.052551,578.920044 908.671692,574.787964 
	C910.286072,570.668152 911.985352,566.581665 913.647217,562.480469 
	C909.412292,557.341125 909.085876,553.536560 912.682373,549.620728 
	C913.356506,548.886719 914.543274,548.645325 915.304932,547.965393 
	C917.259460,546.220581 919.928406,544.699646 920.854919,542.480896 
	C924.569214,533.585815 927.769165,524.473999 931.082458,515.414246 
	C933.344849,509.227997 938.149231,505.140228 943.959473,503.696960 
	C947.066711,502.925171 951.183289,505.787598 954.702942,507.332214 
	C955.976379,507.891083 956.837463,509.389465 958.022278,511.121948 
	C959.006714,513.931152 960.015503,516.029724 960.673889,518.233032 
	C962.451294,524.181030 961.005676,528.931885 956.938904,531.080505 
z"/>
<path fill="#3953B5" opacity="1.000000" stroke="none" 
	d="
M698.988647,564.953674 
	C706.151428,562.992126 713.262085,560.796814 720.502258,559.182251 
	C723.469604,558.520569 726.726562,558.997498 729.825623,559.262390 
	C730.279419,559.301208 730.587402,561.046204 730.605469,562.580505 
	C727.794739,564.151917 725.341431,565.144531 722.658325,566.392578 
	C718.053528,568.233276 713.678528,569.818542 709.303528,571.403809 
	C709.405640,571.770874 709.507751,572.137878 709.609863,572.504944 
	C714.495178,571.424866 719.380432,570.344849 724.227173,569.626587 
	C712.601990,576.071289 700.655762,578.196533 688.068726,573.271240 
	C682.993103,571.543457 681.931885,566.730347 681.256714,562.627502 
	C680.133789,555.803833 680.873291,548.890869 684.185608,542.500732 
	C687.207642,536.670776 690.088379,530.767578 693.034912,524.898499 
	C693.328613,524.313477 693.962524,523.708679 693.907166,523.167419 
	C693.066589,514.951660 700.090088,512.296204 704.694275,508.050842 
	C708.641968,504.410797 716.403625,505.749481 718.896851,510.868225 
	C718.283264,513.090271 717.784119,514.615112 716.831482,517.525269 
	C719.684021,516.822144 721.403748,516.398193 723.123535,515.974304 
	C727.961365,517.416687 732.813599,518.814209 737.616333,520.365295 
	C738.141785,520.534973 738.382080,521.587524 738.377625,522.716553 
	C728.919556,525.747070 719.876404,528.440735 710.738220,530.760132 
	C707.258240,531.643433 705.228760,533.360291 704.522949,536.595093 
	C710.752136,535.773621 716.871765,534.966614 722.991333,534.159607 
	C723.371460,534.966003 723.751587,535.772400 724.265381,537.254395 
	C726.042480,542.947876 724.142578,545.077576 718.952820,545.531860 
	C714.350586,545.934631 709.855835,547.487488 705.254395,547.996460 
	C698.090088,548.788940 695.007324,553.028503 693.865356,559.657593 
	C692.929688,565.089050 693.433411,565.797119 698.988647,564.953674 
z"/>
<path fill="#3953B5" opacity="1.000000" stroke="none" 
	d="
M769.045959,536.731567 
	C773.616150,539.917053 778.186340,543.102600 782.737183,546.896057 
	C782.969238,548.953735 783.435364,550.404541 783.428711,551.853149 
	C783.413635,555.143616 784.482788,559.937317 782.765686,561.440247 
	C777.661072,565.908264 771.448853,569.122986 765.607056,572.726257 
	C764.431458,573.451355 762.802063,573.475647 761.687317,574.258179 
	C756.244202,578.079224 750.371887,578.314758 744.699463,574.851990 
	C743.923096,574.378052 742.877136,574.345703 741.955994,574.108887 
	C737.148438,571.757996 734.529480,564.087891 736.851074,559.567078 
	C738.331360,556.684631 740.468445,555.720032 742.594116,558.260376 
	C746.024902,562.360229 749.784973,561.967102 753.940063,560.085938 
	C757.642090,558.409912 761.306702,556.651245 766.412048,554.262695 
	C762.276917,550.820190 759.426086,547.191040 755.707825,545.635437 
	C749.597839,543.079346 748.927551,537.874634 748.133362,532.898438 
	C746.719238,524.037354 749.481079,520.394165 757.479004,515.718323 
	C766.466553,510.463898 776.074097,509.270447 785.995544,510.232391 
	C788.473816,510.472656 790.683838,513.480225 792.976318,516.028442 
	C792.783936,519.742126 792.912292,522.699158 792.350281,525.518494 
	C792.106689,526.740540 790.489807,528.477600 789.408203,528.544250 
	C788.056702,528.627563 786.595825,527.261841 785.217896,526.460266 
	C784.452759,526.015137 783.738586,524.971191 783.038818,525.003662 
	C775.226624,525.366028 768.383484,528.079773 761.269104,534.439697 
	C764.706665,535.452759 766.876282,536.092163 769.045959,536.731567 
z"/>
<path fill="#3853B5" opacity="1.000000" stroke="none" 
	d="
M876.872009,575.234131 
	C868.420410,568.679565 870.542297,560.260559 873.964050,552.624146 
	C879.284241,540.750916 885.683899,529.358582 891.709900,517.806152 
	C893.358887,514.645020 894.931641,511.305573 897.260376,508.689880 
	C898.634460,507.146484 901.381836,506.418152 903.595337,506.208862 
	C904.634155,506.110626 905.870911,508.104034 907.024780,509.938843 
	C909.821411,515.200195 909.845276,520.194519 907.935608,524.631897 
	C905.867981,529.436340 902.588623,533.739258 899.666199,538.147095 
	C898.322266,540.174133 895.938721,541.687317 895.107361,543.849121 
	C890.963074,554.626587 887.177795,565.542175 883.262451,576.419739 
	C881.263000,576.048767 879.067505,575.641479 876.872009,575.234131 
z"/>
<path fill="#E758D6" opacity="1.000000" stroke="none" 
	d="
M987.247925,585.526611 
	C987.906860,585.321777 988.739075,585.334595 989.541260,585.496094 
	C997.881775,587.175720 999.989014,586.191650 999.766907,578.096924 
	C999.602051,572.086426 1003.339966,569.526978 1005.641724,565.589539 
	C1006.672607,563.257874 1007.703552,560.926147 1008.890137,558.275452 
	C1009.045898,557.956421 1009.010132,558.012390 1009.010132,558.012390 
	C1012.078735,553.616394 1014.990784,549.099915 1018.256531,544.855591 
	C1022.179443,539.757141 1026.209961,534.712585 1030.557495,529.978516 
	C1034.139038,526.078735 1036.788574,522.190430 1034.937378,516.270752 
	C1042.168579,524.029419 1041.926270,528.549683 1033.765747,536.617432 
	C1025.516357,544.773071 1018.398743,553.689270 1013.919189,564.538757 
	C1013.518188,565.509949 1011.875366,565.968445 1010.658142,566.763855 
	C1011.752869,568.731079 1014.056396,570.853027 1009.171814,572.735352 
	C1006.743042,573.671265 1005.166138,577.311279 1004.891174,580.830383 
	C1004.632507,584.142334 1003.446899,587.381836 1002.651917,590.725464 
	C996.793884,591.548950 991.160583,591.645508 987.247925,585.526611 
z"/>
<path fill="#E758D6" opacity="1.000000" stroke="none" 
	d="
M636.088013,575.473572 
	C639.165894,574.978577 642.381714,574.799866 646.334351,574.580139 
	C647.014587,572.999634 647.971130,570.744141 648.953613,568.500122 
	C652.905762,559.473511 656.533691,550.285400 660.914795,541.471741 
	C665.466675,532.314514 673.424316,526.229858 681.789124,520.720703 
	C683.031189,519.902710 684.256042,519.058655 685.806030,518.078308 
	C687.095947,518.812561 688.477356,519.530396 688.919678,520.627014 
	C689.313232,521.602539 689.114929,523.528870 688.408936,524.125488 
	C681.585571,529.891174 673.961304,534.867126 667.914429,541.330383 
	C664.608093,544.864319 663.954834,550.847046 661.969727,555.669739 
	C661.327881,557.229065 660.286987,558.631531 659.363892,560.064026 
	C658.989319,560.645264 658.243469,561.037048 658.003357,561.647522 
	C655.483765,568.053528 653.032654,574.486450 650.145386,581.996826 
	C645.406189,579.883545 640.816040,577.836670 636.088013,575.473572 
z"/>
<path fill="#E556D7" opacity="1.000000" stroke="none" 
	d="
M832.081055,583.669800 
	C835.728699,585.359192 837.970825,584.282043 839.134460,580.370850 
	C839.555908,578.954407 840.637817,577.693176 840.869446,576.271729 
	C841.176453,574.387878 840.945068,572.416321 840.368042,570.409424 
	C845.407043,562.778992 851.205505,555.285217 852.481323,545.463440 
	C852.540955,545.004211 852.774292,544.481995 853.095520,544.154785 
	C861.166382,535.935669 865.708984,526.336426 864.920410,514.234619 
	C869.403992,518.648926 870.408142,526.529480 867.704407,531.907166 
	C865.899536,535.496948 865.237305,539.850830 862.851440,542.920654 
	C857.287048,550.079834 855.207214,558.828552 851.059265,566.611450 
	C848.317017,571.756470 847.330933,577.808411 844.902344,583.156311 
	C840.802673,592.183960 838.590637,592.208923 832.081055,583.669800 
z"/>
<path fill="#E758D6" opacity="1.000000" stroke="none" 
	d="
M913.103760,586.008545 
	C917.924072,585.146301 920.450378,583.287964 921.623413,577.857422 
	C922.916199,571.872437 926.218018,566.142029 929.533020,560.857971 
	C930.933533,558.625610 934.446350,557.205200 937.272522,556.476562 
	C945.760620,554.288025 954.444275,552.853333 962.921204,550.628052 
	C965.941101,549.835266 968.587341,547.618713 971.762756,545.971497 
	C973.080017,546.444092 974.922180,547.356750 974.865234,547.496826 
	C973.960266,549.721741 973.301270,553.158203 971.638123,553.779236 
	C962.150574,557.322510 952.677979,561.383484 942.215454,560.981628 
	C937.239075,560.790527 934.528076,562.999268 932.887329,567.723633 
	C930.578186,574.372620 927.849548,580.913269 924.722595,587.213562 
	C923.972351,588.725281 920.856384,589.970276 918.989014,589.778015 
	C916.908386,589.563904 915.010925,587.569763 913.103760,586.008545 
z"/>
<path fill="#E758D6" opacity="1.000000" stroke="none" 
	d="
M574.122070,576.958130 
	C575.541748,577.189087 576.996094,577.643677 578.261597,578.410095 
	C584.028259,581.902527 589.704773,581.582153 595.924316,579.219604 
	C605.009216,575.768616 612.049072,570.886475 615.011475,560.955017 
	C616.850403,554.789917 619.571228,548.815735 622.539124,543.089050 
	C624.081787,540.112610 627.019897,537.859375 629.327698,535.279480 
	C629.921326,535.618713 630.514954,535.957947 631.108582,536.297119 
	C630.757263,538.607544 630.405884,540.917908 629.947205,543.616211 
	C627.631287,548.404541 625.347168,552.769226 623.242737,557.218811 
	C622.005432,559.834961 620.894104,562.534363 620.000122,565.285278 
	C615.336853,579.635498 602.451843,585.548340 589.793701,585.861877 
	C583.345032,586.021606 578.163147,582.301270 574.122070,576.958130 
z"/>
<path fill="#E458D5" opacity="1.000000" stroke="none" 
	d="
M877.029419,575.529053 
	C879.067505,575.641479 881.263000,576.048767 883.262451,576.419739 
	C887.177795,565.542175 890.963074,554.626587 895.107361,543.849121 
	C895.938721,541.687317 898.322266,540.174133 899.666199,538.147095 
	C902.588623,533.739258 905.867981,529.436340 907.935608,524.631897 
	C909.845276,520.194519 909.821411,515.200195 907.070923,510.339905 
	C908.877502,511.933960 911.733459,513.697571 912.184570,515.944092 
	C913.111755,520.561523 913.744385,525.687927 912.622986,530.131531 
	C911.640198,534.025940 908.294800,537.432861 905.643494,540.778076 
	C896.127014,552.784851 892.218384,567.070435 887.911987,581.952942 
	C883.462524,582.486511 880.521362,578.758972 877.029419,575.529053 
z"/>
<path fill="#E758D6" opacity="1.000000" stroke="none" 
	d="
M741.979858,574.465332 
	C742.877136,574.345703 743.923096,574.378052 744.699463,574.851990 
	C750.371887,578.314758 756.244202,578.079224 761.687317,574.258179 
	C762.802063,573.475647 764.431458,573.451355 765.607056,572.726257 
	C771.448853,569.122986 777.661072,565.908264 782.765686,561.440247 
	C784.482788,559.937317 783.413635,555.143616 783.428711,551.853149 
	C783.435364,550.404541 782.969238,548.953735 782.877869,547.207275 
	C789.556885,550.569519 790.812988,560.424805 787.638733,566.532593 
	C785.769531,570.129089 781.265930,572.941162 777.324646,574.748718 
	C770.157471,578.035950 762.665039,581.680176 755.032532,582.453796 
	C750.988953,582.863525 746.365479,577.550964 741.979858,574.465332 
z"/>
<path fill="#E458D5" opacity="1.000000" stroke="none" 
	d="
M698.990112,564.550720 
	C693.433411,565.797119 692.929688,565.089050 693.865356,559.657593 
	C695.007324,553.028503 698.090088,548.788940 705.254395,547.996460 
	C709.855835,547.487488 714.350586,545.934631 718.952820,545.531860 
	C724.142578,545.077576 726.042480,542.947876 724.437439,537.547485 
	C728.933960,538.732727 729.574463,542.750427 729.787537,546.523315 
	C729.849060,547.612183 727.394714,549.542969 725.823547,549.900391 
	C719.697205,551.294434 713.453857,552.165710 707.270569,553.320251 
	C701.306274,554.433960 699.307678,558.669250 698.990112,564.550720 
z"/>
<path fill="#E458D5" opacity="1.000000" stroke="none" 
	d="
M486.990234,564.411377 
	C482.207184,565.659363 481.420654,564.977966 482.147858,560.617920 
	C483.626801,551.750671 485.257996,549.979736 494.195099,547.999939 
	C498.393250,547.069946 502.611176,546.026428 506.874634,545.647705 
	C511.707550,545.218323 514.607178,543.705688 513.631287,538.000000 
	C514.966980,539.671448 516.317322,541.480957 517.045288,543.513306 
	C518.898865,548.688416 518.265808,549.314941 513.057739,550.065369 
	C507.130737,550.919495 501.258362,552.161377 495.371765,553.284729 
	C489.470673,554.410767 487.320770,558.513000 486.990234,564.411377 
z"/>
<path fill="#E758D6" opacity="1.000000" stroke="none" 
	d="
M769.218262,536.437988 
	C766.876282,536.092163 764.706665,535.452759 761.269104,534.439697 
	C768.383484,528.079773 775.226624,525.366028 783.038818,525.003662 
	C783.738586,524.971191 784.452759,526.015137 785.217896,526.460266 
	C786.595825,527.261841 788.056702,528.627563 789.408203,528.544250 
	C790.489807,528.477600 792.106689,526.740540 792.350281,525.518494 
	C792.912292,522.699158 792.783936,519.742126 793.012939,516.390015 
	C799.143677,518.595947 800.993347,529.412048 796.081848,533.431580 
	C794.053833,535.091125 788.365967,532.978699 787.246155,530.064331 
	C780.438110,529.519226 774.929260,532.876282 769.218262,536.437988 
z"/>
<path fill="#E458D5" opacity="1.000000" stroke="none" 
	d="
M806.066223,576.411743 
	C807.519043,576.398071 809.101685,576.717468 811.342712,577.169739 
	C812.725647,572.414429 814.376221,567.767517 815.393921,562.985840 
	C816.747925,556.624268 819.289001,552.270081 826.847656,553.339294 
	C828.889526,553.628174 831.048767,553.087097 833.452271,552.904297 
	C833.080750,556.914001 831.046570,558.598572 827.375427,559.122253 
	C825.340088,558.940430 823.722961,557.338135 822.863831,560.821533 
	C821.142944,567.798523 818.577942,574.567261 816.230164,581.827759 
	C811.868225,582.646057 808.912415,579.957275 806.066223,576.411743 
z"/>
<path fill="#E758D6" opacity="1.000000" stroke="none" 
	d="
M565.892639,549.201294 
	C564.311279,548.072327 562.729919,546.943298 561.709778,546.214905 
	C566.299500,542.844055 569.837158,540.184326 573.440735,537.617065 
	C576.855469,535.184326 580.355835,532.872192 583.788147,530.463684 
	C587.233826,528.045837 588.743286,524.804626 587.862488,520.151733 
	C593.472717,522.911438 594.869202,530.192993 589.550537,533.998657 
	C582.635315,538.946594 575.784180,543.984131 568.162048,548.958130 
	C566.909973,549.022522 566.401306,549.111938 565.892639,549.201294 
z"/>
<path fill="#E556D7" opacity="1.000000" stroke="none" 
	d="
M688.057007,573.610718 
	C700.655762,578.196533 712.601990,576.071289 724.199768,569.579468 
	C724.210999,569.170532 724.115662,569.224304 724.438477,569.446167 
	C725.267273,569.561340 725.773254,569.454529 726.600708,569.286743 
	C727.129883,569.158875 727.337524,569.092102 727.661865,569.028809 
	C727.778564,569.032227 728.011353,569.048523 728.011353,569.048523 
	C729.268188,569.536255 730.525085,570.023987 732.885437,570.940002 
	C731.492126,572.624939 730.608765,574.755310 729.143372,575.289795 
	C720.781738,578.339111 712.457275,581.642822 703.221985,581.058838 
	C697.141113,580.674377 691.874268,578.950317 688.057007,573.610718 
z"/>
<path fill="#E758D6" opacity="1.000000" stroke="none" 
	d="
M477.008331,574.447998 
	C477.333435,573.987183 477.893158,573.597961 478.243927,573.736816 
	C491.384186,578.936279 503.353943,574.567078 515.592773,569.158936 
	C515.968689,569.040771 515.931580,569.028320 515.931580,569.028320 
	C517.202026,569.515564 518.472534,570.002869 520.852539,570.915710 
	C519.519775,572.582031 518.672241,574.746094 517.243042,575.245544 
	C509.193237,578.058594 501.327972,581.721130 492.402161,581.056885 
	C486.555664,580.621826 481.216095,579.330872 477.008331,574.447998 
z"/>
<path fill="#E556D7" opacity="1.000000" stroke="none" 
	d="
M533.010376,576.491699 
	C540.232056,574.908936 541.102783,572.650024 542.207520,564.956909 
	C543.017456,559.316711 546.438660,554.051514 549.305481,547.152832 
	C551.955566,550.092651 553.510986,551.818054 555.070068,553.917603 
	C553.752808,555.395203 551.883057,556.237976 551.211731,557.650330 
	C549.011230,562.279785 545.905518,566.532410 546.846375,572.370789 
	C547.518188,576.539551 544.191528,579.772278 540.554199,580.449463 
	C538.398743,580.850647 535.661011,578.124634 533.010376,576.491699 
z"/>
<path fill="#E458D5" opacity="1.000000" stroke="none" 
	d="
M723.398010,534.094116 
	C716.871765,534.966614 710.752136,535.773621 704.522949,536.595093 
	C705.228760,533.360291 707.258240,531.643433 710.738220,530.760132 
	C719.876404,528.440735 728.919556,525.747070 738.328979,523.086914 
	C739.912048,523.595459 741.166870,524.219788 742.410645,524.838623 
	C741.110718,529.577148 741.110718,529.577148 723.398010,534.094116 
z"/>
<path fill="#E458D5" opacity="1.000000" stroke="none" 
	d="
M512.410889,534.063660 
	C505.734650,534.918823 499.459198,535.740356 493.006042,536.585205 
	C493.544434,533.405457 495.588104,531.721069 498.990967,530.834961 
	C508.089722,528.465637 517.114624,525.812561 526.505737,523.181152 
	C528.281555,523.879456 529.720520,524.668701 531.553223,525.673950 
	C526.382324,531.975952 518.967346,531.597351 512.410889,534.063660 
z"/>
<path fill="#E458D5" opacity="1.000000" stroke="none" 
	d="
M836.223816,536.455627 
	C832.869873,537.928894 829.671997,539.094849 825.868042,540.481812 
	C831.235107,530.961731 838.997498,522.747864 835.471130,510.624298 
	C842.305359,513.793640 842.565186,523.683899 839.047058,531.071472 
	C838.225769,532.796021 837.272400,534.457703 836.223816,536.455627 
z"/>
<path fill="#E458D5" opacity="1.000000" stroke="none" 
	d="
M993.073975,540.570923 
	C992.047180,540.862183 990.089294,540.926758 990.031616,540.626465 
	C989.523071,537.978271 988.541565,535.029602 989.242432,532.618103 
	C990.946594,526.754333 993.478394,521.130981 995.890503,515.092896 
	C1001.246399,517.856079 1000.373779,521.846313 998.249756,526.433289 
	C996.195679,530.869324 994.741577,535.583252 993.073975,540.570923 
z"/>
<path fill="#E458D5" opacity="1.000000" stroke="none" 
	d="
M945.166016,542.527954 
	C943.044495,542.995117 941.079529,543.149292 939.114624,543.303406 
	C938.839539,542.877258 938.564453,542.451111 938.289307,542.024902 
	C942.534546,535.273743 944.812683,527.275452 952.737122,521.151062 
	C953.315796,524.108887 953.711853,526.133545 954.114624,528.480103 
	C951.188477,533.273010 948.255554,537.744019 945.166016,542.527954 
z"/>
<path fill="#E458D5" opacity="1.000000" stroke="none" 
	d="
M956.973206,531.454529 
	C961.005676,528.931885 962.451294,524.181030 960.673889,518.233032 
	C960.015503,516.029724 959.006714,513.931152 958.211731,511.416626 
	C964.144653,515.814941 966.825867,522.022522 965.899109,529.485962 
	C965.659912,531.411865 964.339783,533.989319 962.767822,534.780518 
	C960.386658,535.979004 958.035217,534.599854 956.973206,531.454529 
z"/>
<path fill="#E758D6" opacity="1.000000" stroke="none" 
	d="
M728.406982,569.026184 
	C728.011353,569.048523 727.778564,569.032227 727.606689,568.740540 
	C727.191467,568.149658 726.948181,567.850403 726.263367,567.484863 
	C725.227783,567.454102 724.633667,567.489746 723.999023,567.281738 
	C723.601685,566.737854 723.244873,566.437500 722.888123,566.137207 
	C725.341431,565.144531 727.794739,564.151917 730.570679,562.960327 
	C732.146973,562.911316 733.400635,563.061279 734.717224,563.218750 
	C736.161011,568.833435 730.971313,567.356628 728.406982,569.026184 
z"/>
<path fill="#E458D5" opacity="1.000000" stroke="none" 
	d="
M516.326477,569.004395 
	C515.931580,569.028320 515.968689,569.040771 515.985840,569.052795 
	C514.628845,568.042297 513.254700,567.019836 511.002411,565.343933 
	C514.300964,564.490662 516.819275,563.839172 519.651489,563.032227 
	C520.975281,563.391174 521.985046,563.905579 522.994873,564.419983 
	C522.407166,565.397461 522.040283,566.715759 521.180237,567.272949 
	C519.873657,568.119446 518.224854,568.437744 516.326477,569.004395 
z"/>
<path fill="#E458D5" opacity="1.000000" stroke="none" 
	d="
M984.907959,548.259644 
	C988.543152,548.533813 992.341980,549.125793 997.362183,549.908142 
	C995.619507,551.858215 994.732422,552.850830 993.489746,553.890015 
	C990.446594,552.150269 987.759094,550.363892 984.907959,548.259644 
z"/>
<path fill="#E458D5" opacity="1.000000" stroke="none" 
	d="
M645.117920,534.671082 
	C644.823364,536.835022 644.444824,538.643127 644.066345,540.451294 
	C643.579224,540.473145 643.092102,540.494995 642.605042,540.516846 
	C641.665466,536.577454 640.725891,532.638062 639.905762,528.289307 
	C641.694885,530.025146 643.364441,532.170227 645.117920,534.671082 
z"/>
<path fill="#E458D5" opacity="1.000000" stroke="none" 
	d="
M796.829529,559.500000 
	C798.902771,558.903198 800.813477,558.648132 803.848328,558.242981 
	C802.803223,560.281433 802.141785,561.571655 801.178467,562.986938 
	C799.561462,561.908569 794.493103,565.536560 796.829529,559.500000 
z"/>
<path fill="#E458D5" opacity="1.000000" stroke="none" 
	d="
M723.074524,515.585449 
	C721.403748,516.398193 719.684021,516.822144 716.831482,517.525269 
	C717.784119,514.615112 718.283264,513.090271 718.947144,511.255096 
	C721.604309,511.268585 723.548584,512.096985 723.074524,515.585449 
z"/>
<path fill="#E458D5" opacity="1.000000" stroke="none" 
	d="
M511.083862,515.594482 
	C509.623627,516.381348 508.106537,516.788391 505.288177,517.544556 
	C506.374786,514.566284 506.951752,512.984863 507.787476,511.141296 
	C509.039856,512.324280 510.033417,513.769470 511.083862,515.594482 
z"/>
<path fill="#7255C0" opacity="1.000000" stroke="none" 
	d="
M566.003906,549.509399 
	C566.401306,549.111938 566.909973,549.022522 567.803406,548.979248 
	C568.788452,550.124878 569.388672,551.224365 570.039673,552.643127 
	C568.765259,551.914062 567.440247,550.865784 566.003906,549.509399 
z"/>
<path fill="#7255C0" opacity="1.000000" stroke="none" 
	d="
M579.668701,561.370178 
	C578.610229,560.896240 577.394592,560.181091 576.096313,559.187683 
	C577.179688,559.649292 578.345581,560.389099 579.668701,561.370178 
z"/>
<path fill="#E458D5" opacity="1.000000" stroke="none" 
	d="
M982.377014,545.416748 
	C980.517273,546.888184 981.103394,547.666626 983.674255,547.307617 
	C983.459106,546.438110 982.935547,546.051575 982.377014,545.416748 
z"/>
<path fill="#7255C0" opacity="1.000000" stroke="none" 
	d="
M571.019531,553.719971 
	C570.810425,553.786987 570.528748,553.583191 570.127625,553.143677 
	C570.321106,553.088318 570.633972,553.268677 571.019531,553.719971 
z"/>
<path fill="#7255C0" opacity="1.000000" stroke="none" 
	d="
M576.009827,558.741455 
	C575.817932,558.792114 575.549316,558.570190 575.134766,558.130005 
	C575.303589,558.097351 575.618286,558.283081 576.009827,558.741455 
z"/>
<path fill="#7255C0" opacity="1.000000" stroke="none" 
	d="
M575.012695,557.736572 
	C574.816833,557.790955 574.544922,557.573303 574.133789,557.132629 
	C574.308594,557.094543 574.622620,557.279541 575.012695,557.736572 
z"/>
<path fill="#7255C0" opacity="1.000000" stroke="none" 
	d="
M574.017395,556.729614 
	C573.814087,556.790466 573.537292,556.579224 573.131653,556.138062 
	C573.316528,556.091248 573.630188,556.274414 574.017395,556.729614 
z"/>
<path fill="#7255C0" opacity="1.000000" stroke="none" 
	d="
M573.019958,555.722473 
	C572.810913,555.789001 572.529480,555.584167 572.128235,555.143616 
	C572.321472,555.088928 572.634521,555.270081 573.019958,555.722473 
z"/>
<path fill="#7255C0" opacity="1.000000" stroke="none" 
	d="
M572.019653,554.720093 
	C571.810425,554.787231 571.528564,554.583496 571.127808,554.143799 
	C571.321594,554.088318 571.634338,554.268799 572.019653,554.720093 
z"/>
<path fill="#E458D5" opacity="1.000000" stroke="none" 
	d="
M640.039246,527.931519 
	C639.898804,527.932678 639.687744,527.671570 639.316406,527.207214 
	C639.427002,527.225769 639.697876,527.447510 640.039246,527.931519 
z"/>
<path fill="#E758D6" opacity="1.000000" stroke="none" 
	d="
M1034.848877,515.817749 
	C1034.873291,515.613159 1034.977173,515.217041 1034.692017,514.994751 
	C1034.632568,515.155945 1034.841064,515.308472 1034.848877,515.817749 
z"/>
<path fill="#000000" opacity="1.000000" stroke="none" 
	d="
M310.298798,317.658813 
	C325.472290,346.275452 340.495544,374.547058 355.403595,402.879272 
	C367.944946,426.713684 380.324188,450.633392 392.828552,474.487335 
	C401.596283,491.213074 410.393524,507.924133 419.336700,524.556152 
	C420.661835,527.020569 420.652008,528.817810 419.361023,531.278503 
	C409.910950,549.290833 400.686401,567.421265 391.276642,585.454956 
	C381.334839,604.508240 371.263702,623.494019 361.254822,642.512329 
	C350.944366,662.103577 340.637085,681.696472 330.335297,701.292236 
	C320.335785,720.312927 310.345490,739.338440 300.350342,758.361450 
	C286.697418,784.346008 273.085571,810.352295 259.375031,836.306458 
	C250.952042,852.251221 242.377625,868.115906 233.467316,884.771606 
	C229.774841,877.734192 226.364334,871.198364 222.921478,864.679626 
	C214.979050,849.641418 207.017715,834.613159 199.070312,819.577515 
	C193.729904,809.474060 188.419693,799.354553 183.060120,789.261292 
	C178.155411,780.024536 173.106689,770.863098 168.293259,761.579468 
	C160.920822,747.360229 153.759354,733.031494 146.387863,718.811768 
	C140.589111,707.625793 134.620438,696.527710 128.705078,685.402405 
	C122.955956,674.589661 117.115921,663.824890 111.428986,652.979736 
	C103.528488,637.913025 95.758148,622.778198 87.886314,607.696411 
	C80.407257,593.367126 72.882729,579.061462 65.352844,564.758789 
	C59.562901,553.760986 53.955151,542.656799 47.770660,531.884460 
	C46.164268,529.086426 46.218651,527.322449 47.573360,524.777588 
	C59.533649,502.310211 71.456688,479.822723 83.299294,457.293091 
	C95.452049,434.173462 107.487526,410.992218 119.601585,387.852203 
	C129.435211,369.068237 139.299179,350.300171 149.168045,331.534637 
	C159.637482,311.627136 170.138245,291.736084 180.607346,271.828369 
	C190.476044,253.062332 200.305115,234.275482 210.182205,215.513916 
	C217.374939,201.851242 224.613907,188.212891 231.846619,174.571320 
	C232.280502,173.752991 232.841980,173.002304 233.737289,171.607651 
	C259.374634,220.535431 284.736633,268.937714 310.298798,317.658813 
M63.909840,555.627808 
	C72.998604,572.914734 82.083237,590.203796 91.177109,607.488037 
	C104.791458,633.364136 118.414764,659.235535 132.029449,685.111450 
	C142.121933,704.293152 152.198700,723.483032 162.296921,742.661682 
	C175.843262,768.389038 189.455307,794.081909 202.939880,819.841553 
	C212.077942,837.298096 221.012421,854.861267 230.162430,872.311462 
	C230.777588,873.484741 232.386627,874.673523 233.641129,874.801819 
	C234.609161,874.900757 236.163803,873.571899 236.743896,872.493896 
	C243.128418,860.629822 249.368454,848.687988 255.656555,836.771912 
	C264.779419,819.483765 273.920013,802.204895 283.034088,784.912109 
	C296.676941,759.026611 310.310242,733.136047 323.934540,707.240723 
	C333.655457,688.764526 343.373779,670.286987 353.059235,651.792236 
	C364.867096,629.244690 376.602753,606.659241 388.438843,584.126526 
	C397.436523,566.997253 406.631165,549.970520 415.481476,532.766052 
	C416.523621,530.740173 416.858826,527.454346 415.949158,525.475464 
	C411.930817,516.734131 407.420380,508.213348 402.933594,499.694092 
	C394.704803,484.069824 386.323639,468.525879 378.090118,452.904083 
	C372.610870,442.508148 367.363556,431.989716 361.858185,421.607910 
	C354.191406,407.150238 346.295624,392.813721 338.658813,378.340485 
	C332.943024,367.507996 327.582153,356.488403 321.882721,345.647003 
	C313.513123,329.726532 304.933411,313.916565 296.538269,298.009338 
	C291.276794,288.039673 286.269104,277.936005 281.005280,267.967590 
	C273.372131,253.512131 265.582886,239.139206 257.911438,224.703842 
	C250.624420,210.991882 243.426208,197.232666 236.105850,183.538635 
	C235.568497,182.533447 234.347351,181.240417 233.462982,181.254639 
	C232.546066,181.269394 231.352585,182.547424 230.795135,183.557266 
	C225.960480,192.315369 221.183853,201.106796 216.500732,209.947006 
	C206.366913,229.076462 196.280640,248.231171 186.208649,267.393311 
	C175.984406,286.845062 165.822556,306.329620 155.593216,325.778687 
	C145.438385,345.086151 135.207703,364.353699 125.057785,383.663727 
	C114.910439,402.968842 104.825554,422.306763 94.706429,441.626740 
	C85.794884,458.641052 76.893463,475.660675 67.948578,492.657471 
	C63.679821,500.768799 59.573967,508.981720 54.926338,516.872986 
	C50.830959,523.826538 49.090210,530.249817 54.147469,537.666992 
	C57.825352,543.061157 60.412086,549.199402 63.909840,555.627808 
z"/>
<path fill="#E758D6" opacity="1.000000" stroke="none" 
	d="
M1009.063721,557.928406 
	C1008.967346,557.951599 1008.853088,558.002747 1008.738892,558.053955 
	C1008.782166,557.956177 1008.825500,557.858398 1008.939453,557.886475 
	C1009.010132,558.012390 1009.045898,557.956421 1009.063721,557.928406 
z"/>
<path fill="#7255C0" opacity="1.000000" stroke="none" 
	d="
M722.658325,566.392578 
	C723.244873,566.437500 723.601685,566.737854 724.012695,567.706909 
	C724.083191,568.658569 724.099426,568.941406 724.115662,569.224304 
	C724.115662,569.224304 724.210999,569.170532 724.238403,569.217651 
	C719.380432,570.344849 714.495178,571.424866 709.609863,572.504944 
	C709.507751,572.137878 709.405640,571.770874 709.303528,571.403809 
	C713.678528,569.818542 718.053528,568.233276 722.658325,566.392578 
z"/>
<path fill="#3953B5" opacity="1.000000" stroke="none" 
	d="
M724.438477,569.446167 
	C724.099426,568.941406 724.083191,568.658569 724.053345,567.950500 
	C724.633667,567.489746 725.227783,567.454102 726.151489,567.933350 
	C726.413757,568.747986 726.346497,569.047913 726.279236,569.347778 
	C725.773254,569.454529 725.267273,569.561340 724.438477,569.446167 
z"/>
<path fill="#7255C0" opacity="1.000000" stroke="none" 
	d="
M726.600708,569.286743 
	C726.346497,569.047913 726.413757,568.747986 726.593018,567.999634 
	C726.948181,567.850403 727.191467,568.149658 727.489990,568.737061 
	C727.337524,569.092102 727.129883,569.158875 726.600708,569.286743 
z"/>
<path fill="#3551B6" opacity="1.000000" stroke="none" 
	d="
M63.697571,555.316833 
	C60.412086,549.199402 57.825352,543.061157 54.147469,537.666992 
	C49.090210,530.249817 50.830959,523.826538 54.926338,516.872986 
	C59.573967,508.981720 63.679821,500.768799 67.948578,492.657471 
	C76.893463,475.660675 85.794884,458.641052 94.706429,441.626740 
	C104.825554,422.306763 114.910439,402.968842 125.057785,383.663727 
	C135.207703,364.353699 145.438385,345.086151 155.593216,325.778687 
	C165.822556,306.329620 175.984406,286.845062 186.208649,267.393311 
	C196.280640,248.231171 206.366913,229.076462 216.500732,209.947006 
	C221.183853,201.106796 225.960480,192.315369 230.795135,183.557266 
	C231.352585,182.547424 232.546066,181.269394 233.462982,181.254639 
	C234.347351,181.240417 235.568497,182.533447 236.105850,183.538635 
	C243.426208,197.232666 250.624420,210.991882 257.911438,224.703842 
	C265.582886,239.139206 273.372131,253.512131 281.005280,267.967590 
	C286.269104,277.936005 291.276794,288.039673 296.538269,298.009338 
	C304.933411,313.916565 313.513123,329.726532 321.882721,345.647003 
	C327.582153,356.488403 332.943024,367.507996 338.658813,378.340485 
	C346.295624,392.813721 354.191406,407.150238 361.858185,421.607910 
	C367.363556,431.989716 372.610870,442.508148 378.090118,452.904083 
	C386.323639,468.525879 394.704803,484.069824 402.933594,499.694092 
	C407.420380,508.213348 411.930817,516.734131 415.949158,525.475464 
	C416.858826,527.454346 416.523621,530.740173 415.481476,532.766052 
	C406.631165,549.970520 397.436523,566.997253 388.438843,584.126526 
	C376.602753,606.659241 364.867096,629.244690 353.059235,651.792236 
	C343.373779,670.286987 333.655457,688.764526 323.934540,707.240723 
	C310.310242,733.136047 296.676941,759.026611 283.034088,784.912109 
	C273.920013,802.204895 264.779419,819.483765 255.656555,836.771912 
	C249.368454,848.687988 243.128418,860.629822 236.743896,872.493896 
	C236.163803,873.571899 234.609161,874.900757 233.641129,874.801819 
	C232.386627,874.673523 230.777588,873.484741 230.162430,872.311462 
	C221.012421,854.861267 212.077942,837.298096 202.939880,819.841553 
	C189.455307,794.081909 175.843262,768.389038 162.296921,742.661682 
	C152.198700,723.483032 142.121933,704.293152 132.029449,685.111450 
	C118.414764,659.235535 104.791458,633.364136 91.177109,607.488037 
	C82.083237,590.203796 72.998604,572.914734 63.697571,555.316833 
M208.103668,240.641159 
	C205.413544,245.709702 202.706467,250.769302 200.036362,255.848358 
	C190.331696,274.308472 180.644592,292.777832 170.941238,311.238647 
	C156.957962,337.842041 142.963882,364.439697 128.979050,391.042267 
	C119.273323,409.504944 109.588440,427.978577 99.870888,446.434998 
	C86.028015,472.726624 72.142776,498.996063 58.374832,525.326843 
	C57.732052,526.556152 57.478374,528.554443 58.024025,529.745300 
	C60.952133,536.135681 64.082108,542.440796 67.348686,548.667114 
	C72.132538,557.785522 77.115601,566.799255 81.968971,575.881531 
	C87.585785,586.392456 93.158218,596.927246 98.742218,607.455688 
	C104.647057,618.589050 110.611694,629.691467 116.419304,640.875366 
	C120.557327,648.844177 124.344246,656.996338 128.528946,664.939636 
	C134.629898,676.520508 141.012131,687.952759 147.155975,699.511353 
	C154.740936,713.780945 162.190033,728.122742 169.725067,742.419006 
	C175.601334,753.568054 181.548920,764.679504 187.408890,775.837097 
	C191.814667,784.225952 196.123016,792.665955 200.490387,801.075073 
	C206.666534,812.966919 212.809952,824.876160 219.056946,836.730713 
	C223.725769,845.590454 228.536194,854.375427 233.446884,863.497131 
	C235.517624,859.869446 237.386322,856.795715 239.065506,853.621704 
	C250.030304,832.895996 260.975830,812.160095 271.884827,791.405029 
	C281.959412,772.237488 292.003632,753.053833 302.015991,733.853699 
	C307.404785,723.519836 312.598145,713.083191 318.056305,702.786560 
	C328.962463,682.212463 340.017303,661.717285 350.957855,641.161316 
	C357.661285,628.566467 364.315369,615.944824 370.905273,603.290283 
	C383.406433,579.284302 395.808441,555.226562 408.366760,531.250671 
	C409.652405,528.796204 409.644684,526.997559 408.315765,524.528931 
	C398.817963,506.886322 389.490906,489.151642 380.144104,471.428009 
	C370.720367,453.558441 361.334625,435.668823 351.935455,417.786316 
	C337.956024,391.189575 323.980133,364.590973 310.001465,337.993835 
	C300.300262,319.535431 290.574493,301.089874 280.900116,282.617432 
	C268.249115,258.461456 255.655670,234.275314 242.996719,210.123520 
	C240.011688,204.428452 236.863937,198.818695 233.452698,192.547714 
	C224.859024,208.915466 216.693878,224.467026 208.103668,240.641159 
z"/>
<path fill="#000000" opacity="1.000000" stroke="none" 
	d="
M208.316193,240.329865 
	C216.693878,224.467026 224.859024,208.915466 233.452698,192.547714 
	C236.863937,198.818695 240.011688,204.428452 242.996719,210.123520 
	C255.655670,234.275314 268.249115,258.461456 280.900116,282.617432 
	C290.574493,301.089874 300.300262,319.535431 310.001465,337.993835 
	C323.980133,364.590973 337.956024,391.189575 351.935455,417.786316 
	C361.334625,435.668823 370.720367,453.558441 380.144104,471.428009 
	C389.490906,489.151642 398.817963,506.886322 408.315765,524.528931 
	C409.644684,526.997559 409.652405,528.796204 408.366760,531.250671 
	C395.808441,555.226562 383.406433,579.284302 370.905273,603.290283 
	C364.315369,615.944824 357.661285,628.566467 350.957855,641.161316 
	C340.017303,661.717285 328.962463,682.212463 318.056305,702.786560 
	C312.598145,713.083191 307.404785,723.519836 302.015991,733.853699 
	C292.003632,753.053833 281.959412,772.237488 271.884827,791.405029 
	C260.975830,812.160095 250.030304,832.895996 239.065506,853.621704 
	C237.386322,856.795715 235.517624,859.869446 233.446884,863.497131 
	C228.536194,854.375427 223.725769,845.590454 219.056946,836.730713 
	C212.809952,824.876160 206.666534,812.966919 200.490387,801.075073 
	C196.123016,792.665955 191.814667,784.225952 187.408890,775.837097 
	C181.548920,764.679504 175.601334,753.568054 169.725067,742.419006 
	C162.190033,728.122742 154.740936,713.780945 147.155975,699.511353 
	C141.012131,687.952759 134.629898,676.520508 128.528946,664.939636 
	C124.344246,656.996338 120.557327,648.844177 116.419304,640.875366 
	C110.611694,629.691467 104.647057,618.589050 98.742218,607.455688 
	C93.158218,596.927246 87.585785,586.392456 81.968971,575.881531 
	C77.115601,566.799255 72.132538,557.785522 67.348686,548.667114 
	C64.082108,542.440796 60.952133,536.135681 58.024025,529.745300 
	C57.478374,528.554443 57.732052,526.556152 58.374832,525.326843 
	C72.142776,498.996063 86.028015,472.726624 99.870888,446.434998 
	C109.588440,427.978577 119.273323,409.504944 128.979050,391.042267 
	C142.963882,364.439697 156.957962,337.842041 170.941238,311.238647 
	C180.644592,292.777832 190.331696,274.308472 200.036362,255.848358 
	C202.706467,250.769302 205.413544,245.709702 208.316193,240.329865 
M238.011124,632.983948 
	C237.768661,622.926331 235.343170,613.039062 236.753632,602.786621 
	C237.427017,597.891724 235.472153,592.635315 234.954529,589.186829 
	C235.797134,586.351685 236.256409,584.806274 236.715683,583.260925 
	C235.233566,582.987732 234.377853,582.901672 236.044281,581.210571 
	C236.963974,580.277222 236.945862,578.204529 236.968369,576.640015 
	C237.061310,570.180908 236.939423,563.718262 237.063583,557.260193 
	C237.090073,555.882751 237.815765,554.518677 237.888168,554.272888 
	C240.963669,553.770081 243.244812,553.103149 245.534073,553.073975 
	C255.329468,552.949341 265.127319,553.029175 274.924133,553.001404 
	C280.645630,552.985229 284.729370,549.979187 284.873596,544.512024 
	C285.068054,537.140808 284.367493,529.744019 284.001160,522.360657 
	C283.813782,518.584656 281.743439,516.449402 277.977173,515.112000 
	C274.636841,505.638367 273.707184,504.887878 263.248230,505.040039 
	C254.181183,505.171936 245.118439,505.600647 236.012299,504.975616 
	C236.743744,482.776794 233.554214,460.677826 233.646729,438.008240 
	C236.103653,438.008240 237.894363,438.039856 239.683685,438.003265 
	C255.589752,437.678131 271.496246,437.096588 287.401031,437.142609 
	C292.821777,437.158295 295.762299,432.737579 295.936890,428.463470 
	C296.208588,421.812592 296.262146,415.128784 295.910828,408.485229 
	C295.689972,404.308594 294.439392,400.277985 289.011353,399.114624 
	C287.921570,391.690460 286.172058,389.714844 278.575714,389.903687 
	C264.721436,390.248108 250.850937,389.874573 236.990112,390.042084 
	C224.199265,390.196625 211.410599,390.616180 198.624023,391.016266 
	C188.542542,391.331665 185.646683,394.079071 186.083099,404.240631 
	C186.776672,420.389984 188.609482,436.506805 188.867813,452.654877 
	C189.334961,481.855377 188.914658,511.069122 189.039612,540.276611 
	C189.081375,550.039185 189.857315,559.798157 189.925583,569.561340 
	C189.982574,577.710815 188.931885,585.895447 189.382217,594.008423 
	C190.060852,606.234131 190.846176,618.426697 190.035858,630.668213 
	C189.970947,631.648804 189.933624,632.685303 190.170578,633.623230 
	C192.368530,642.323669 191.056580,651.108337 190.494400,659.805420 
	C190.140396,665.282104 191.658798,669.097229 197.022858,671.957458 
	C197.538818,677.085999 199.727463,680.849487 205.241089,681.726929 
	C206.864441,681.985291 208.538696,681.996521 210.189682,681.997559 
	C235.124817,682.013550 260.060059,682.045349 284.994934,681.964417 
	C288.234192,681.953918 291.604370,681.770325 294.657745,680.832764 
	C296.378326,680.304443 298.486572,678.260986 298.839478,676.570190 
	C299.959808,671.202332 300.552124,665.693298 300.907440,660.210266 
	C301.073456,657.649048 299.782837,654.997498 299.925293,652.429810 
	C300.269623,646.225403 298.767181,644.384216 292.270844,643.250061 
	C293.734772,637.242981 292.028168,634.292114 286.503326,634.057251 
	C275.108673,633.572754 263.705566,633.201843 252.302368,633.045166 
	C247.552780,632.979797 242.794022,633.580933 238.011124,632.983948 
z"/>
<path fill="#3653B4" opacity="1.000000" stroke="none" 
	d="
M236.053787,505.898163 
	C245.118439,505.600647 254.181183,505.171936 263.248230,505.040039 
	C273.707184,504.887878 274.636841,505.638367 277.693787,515.757690 
	C277.187531,520.682800 276.608643,524.979431 276.815033,529.237976 
	C277.259949,538.419495 274.379059,541.775757 265.190308,541.813782 
	C253.620361,541.861755 242.050064,541.825317 229.714111,541.825317 
	C229.269989,549.436646 228.517380,556.370667 228.598846,563.294861 
	C228.643875,567.121826 229.846710,570.837219 223.625885,572.176270 
	C225.871567,573.322266 227.055710,573.926514 227.343765,574.073486 
	C227.055923,576.638550 225.971329,579.127625 226.736664,580.736816 
	C229.905334,587.399170 228.901154,594.234497 228.465912,601.094360 
	C228.298325,603.735962 227.789810,606.401611 227.995621,609.012268 
	C228.501373,615.427917 229.600281,621.802979 229.959122,628.222351 
	C230.350342,635.220642 230.954666,635.835815 238.039444,633.879089 
	C242.794022,633.580933 247.552780,632.979797 252.302368,633.045166 
	C263.705566,633.201843 275.108673,633.572754 286.503326,634.057251 
	C292.028168,634.292114 293.734772,637.242981 292.198303,644.071533 
	C292.276031,646.809753 292.426300,648.726562 292.583710,650.734436 
	C290.722382,650.820740 289.396240,650.882202 288.163666,650.939331 
	C288.064423,651.514160 287.975342,651.797302 288.017609,651.818542 
	C293.124603,654.378479 291.657318,658.430420 291.378540,662.924377 
	C291.003082,668.977112 287.573303,669.880737 283.014923,670.274963 
	C281.859344,670.374878 280.690826,670.341858 279.528259,670.341919 
	C253.945450,670.341980 228.362595,670.319580 202.779892,670.372009 
	C200.841080,670.375977 198.903366,670.906250 196.965134,671.191833 
	C191.658798,669.097229 190.140396,665.282104 190.494400,659.805420 
	C191.056580,651.108337 192.368530,642.323669 190.170578,633.623230 
	C189.933624,632.685303 189.970947,631.648804 190.035858,630.668213 
	C190.846176,618.426697 190.060852,606.234131 189.382217,594.008423 
	C188.931885,585.895447 189.982574,577.710815 189.925583,569.561340 
	C189.857315,559.798157 189.081375,550.039185 189.039612,540.276611 
	C188.914658,511.069122 189.334961,481.855377 188.867813,452.654877 
	C188.609482,436.506805 186.776672,420.389984 186.083099,404.240631 
	C185.646683,394.079071 188.542542,391.331665 198.624023,391.016266 
	C211.410599,390.616180 224.199265,390.196625 236.990112,390.042084 
	C250.850937,389.874573 264.721436,390.248108 278.575714,389.903687 
	C286.172058,389.714844 287.921570,391.690460 288.768372,399.842468 
	C288.364532,404.882385 288.127808,409.193237 288.057861,413.506775 
	C287.893402,423.651367 285.783783,425.985443 275.820007,426.197113 
	C260.994110,426.512085 246.164429,426.645386 231.337250,426.906158 
	C229.138992,426.944824 226.441940,426.225220 226.105637,429.856842 
	C225.669159,434.570679 225.328537,439.136871 225.688919,444.011475 
	C227.062012,462.584167 227.502914,481.235657 227.891159,499.866089 
	C228.037338,506.880493 228.916656,507.920837 236.053787,505.898163 
z"/>
<path fill="#F849E2" opacity="1.000000" stroke="none" 
	d="
M236.033051,505.436890 
	C228.916656,507.920837 228.037338,506.880493 227.891159,499.866089 
	C227.502914,481.235657 227.062012,462.584167 225.688919,444.011475 
	C225.328537,439.136871 225.669159,434.570679 226.105637,429.856842 
	C226.441940,426.225220 229.138992,426.944824 231.337250,426.906158 
	C246.164429,426.645386 260.994110,426.512085 275.820007,426.197113 
	C285.783783,425.985443 287.893402,423.651367 288.057861,413.506775 
	C288.127808,409.193237 288.364532,404.882385 288.791443,400.235779 
	C294.439392,400.277985 295.689972,404.308594 295.910828,408.485229 
	C296.262146,415.128784 296.208588,421.812592 295.936890,428.463470 
	C295.762299,432.737579 292.821777,437.158295 287.401031,437.142609 
	C271.496246,437.096588 255.589752,437.678131 239.683685,438.003265 
	C237.894363,438.039856 236.103653,438.008240 233.646729,438.008240 
	C233.554214,460.677826 236.743744,482.776794 236.033051,505.436890 
z"/>
<path fill="#F849E2" opacity="1.000000" stroke="none" 
	d="
M238.025284,633.431519 
	C230.954666,635.835815 230.350342,635.220642 229.959122,628.222351 
	C229.600281,621.802979 228.501373,615.427917 227.995621,609.012268 
	C227.789810,606.401611 228.298325,603.735962 228.465912,601.094360 
	C228.901154,594.234497 229.905334,587.399170 226.736664,580.736816 
	C225.971329,579.127625 227.055923,576.638550 227.343765,574.073486 
	C227.055710,573.926514 225.871567,573.322266 223.625885,572.176270 
	C229.846710,570.837219 228.643875,567.121826 228.598846,563.294861 
	C228.517380,556.370667 229.269989,549.436646 229.714111,541.825317 
	C242.050064,541.825317 253.620361,541.861755 265.190308,541.813782 
	C274.379059,541.775757 277.259949,538.419495 276.815033,529.237976 
	C276.608643,524.979431 277.187531,520.682800 277.720459,516.137207 
	C281.743439,516.449402 283.813782,518.584656 284.001160,522.360657 
	C284.367493,529.744019 285.068054,537.140808 284.873596,544.512024 
	C284.729370,549.979187 280.645630,552.985229 274.924133,553.001404 
	C265.127319,553.029175 255.329468,552.949341 245.534073,553.073975 
	C243.244812,553.103149 240.963669,553.770081 237.888168,554.272888 
	C237.815765,554.518677 237.090073,555.882751 237.063583,557.260193 
	C236.939423,563.718262 237.061310,570.180908 236.968369,576.640015 
	C236.945862,578.204529 236.963974,580.277222 236.044281,581.210571 
	C234.377853,582.901672 235.233566,582.987732 236.715683,583.260925 
	C236.256409,584.806274 235.797134,586.351685 234.954529,589.186829 
	C235.472153,592.635315 237.427017,597.891724 236.753632,602.786621 
	C235.343170,613.039062 237.768661,622.926331 238.025284,633.431519 
z"/>
<path fill="#F749E1" opacity="1.000000" stroke="none" 
	d="
M196.993988,671.574646 
	C198.903366,670.906250 200.841080,670.375977 202.779892,670.372009 
	C228.362595,670.319580 253.945450,670.341980 279.528259,670.341919 
	C280.690826,670.341858 281.859344,670.374878 283.014923,670.274963 
	C287.573303,669.880737 291.003082,668.977112 291.378540,662.924377 
	C291.657318,658.430420 293.124603,654.378479 288.017609,651.818542 
	C287.975342,651.797302 288.064423,651.514160 288.163666,650.939331 
	C289.396240,650.882202 290.722382,650.820740 292.583710,650.734436 
	C292.426300,648.726562 292.276031,646.809753 292.155365,644.456665 
	C298.767181,644.384216 300.269623,646.225403 299.925293,652.429810 
	C299.782837,654.997498 301.073456,657.649048 300.907440,660.210266 
	C300.552124,665.693298 299.959808,671.202332 298.839478,676.570190 
	C298.486572,678.260986 296.378326,680.304443 294.657745,680.832764 
	C291.604370,681.770325 288.234192,681.953918 284.994934,681.964417 
	C260.060059,682.045349 235.124817,682.013550 210.189682,681.997559 
	C208.538696,681.996521 206.864441,681.985291 205.241089,681.726929 
	C199.727463,680.849487 197.538818,677.085999 196.993988,671.574646 
z"/>
</svg>